2014004_C4_02_grf
version=1
nRows=37
nColumns=19
inDegrees=no
endheader
time	ground_force_1_vx	ground_force_1_vy	ground_force_1_vz	ground_force_1_px	ground_force_1_py	ground_force_1_pz	ground_force_1_mx	ground_force_1_my	ground_force_1_mz	ground_force_2_vx	ground_force_2_vy	ground_force_2_vz	ground_force_2_px	ground_force_2_py	ground_force_2_pz	ground_force_2_mx	ground_force_2_my	ground_force_2_mz
      0.86000000	    -33.68255123	    596.28099203	    -15.15164450	     -0.13036217	     -0.00200000	      0.31859460	      0.00000000	      2.36990216	      0.00000000	      0.00000000	      0.00000000	      0.00000000	      0.00000000	      0.00000000	      0.00000000	      0.00000000	      0.00000000	      0.00000000
      0.86100000	    -33.46487321	    595.94771266	    -15.09624962	     -0.12987950	     -0.00200000	      0.31867524	      0.00000000	      2.37416316	      0.00000000	      0.00000000	      0.00000000	      0.00000000	      0.00000000	      0.00000000	      0.00000000	      0.00000000	      0.00000000	      0.00000000
      0.86200000	    -33.24863315	    595.64316273	    -15.04235230	     -0.12939921	     -0.00200000	      0.31875556	      0.00000000	      2.37824859	      0.00000000	      0.00000000	      0.00000000	      0.00000000	      0.00000000	      0.00000000	      0.00000000	      0.00000000	      0.00000000	      0.00000000
      0.86300000	    -33.03402849	    595.37360072	    -14.99043703	     -0.12892193	     -0.00200000	      0.31883551	      0.00000000	      2.38210610	      0.00000000	      0.00000000	      0.00000000	      0.00000000	      0.00000000	      0.00000000	      0.00000000	      0.00000000	      0.00000000	      0.00000000
      0.86400000	    -32.82058239	    595.13127804	    -14.94019814	     -0.12844707	     -0.00200000	      0.31891520	      0.00000000	      2.38577188	      0.00000000	      0.00000000	      0.00000000	      0.00000000	      0.00000000	      0.00000000	      0.00000000	      0.00000000	      0.00000000	      0.00000000
      0.86500000	    -32.60838985	    594.92206573	    -14.89216648	     -0.12797527	     -0.00200000	      0.31899458	      0.00000000	      2.38918723	      0.00000000	      0.00000000	      0.00000000	      0.00000000	      0.00000000	      0.00000000	      0.00000000	      0.00000000	      0.00000000	      0.00000000
      0.86600000	    -32.39702433	    594.73860264	    -14.84598890	     -0.12750595	     -0.00200000	      0.31907373	      0.00000000	      2.39239041	      0.00000000	      0.00000000	      0.00000000	      0.00000000	      0.00000000	      0.00000000	      0.00000000	      0.00000000	      0.00000000	      0.00000000
      0.86700000	    -32.18646720	    594.58628297	    -14.80223313	     -0.12703978	     -0.00200000	      0.31915261	      0.00000000	      2.39531529	      0.00000000	      0.00000000	      0.00000000	      0.00000000	      0.00000000	      0.00000000	      0.00000000	      0.00000000	      0.00000000	      0.00000000
      0.86800000	    -31.97636455	    594.45816278	    -14.76049237	     -0.12657615	     -0.00200000	      0.31923127	     -0.00000000	      2.39800408	     -0.00000000	      0.00000000	      0.00000000	      0.00000000	      0.00000000	      0.00000000	      0.00000000	      0.00000000	      0.00000000	      0.00000000
      0.86900000	    -31.76658414	    594.35933828	    -14.72136173	     -0.12611575	     -0.00200000	      0.31930966	      0.00000000	      2.40038240	      0.00000000	      0.00000000	      0.00000000	      0.00000000	      0.00000000	      0.00000000	      0.00000000	      0.00000000	      0.00000000	      0.00000000
      0.87000000	    -31.55685216	    594.28322315	    -14.68438916	     -0.12565802	     -0.00200000	      0.31938783	      0.00000000	      2.40250028	     -0.00000000	      0.00000000	      0.00000000	      0.00000000	      0.00000000	      0.00000000	      0.00000000	      0.00000000	      0.00000000	      0.00000000
      0.87100000	    -31.34691343	    594.23443675	    -14.65018764	     -0.12520363	     -0.00200000	      0.31946575	     -0.00000000	      2.40427986	     -0.00000000	      0.00000000	      0.00000000	      0.00000000	      0.00000000	      0.00000000	      0.00000000	      0.00000000	      0.00000000	      0.00000000
      0.87200000	    -31.13658167	    594.20686960	    -14.61825483	     -0.12475204	     -0.00200000	      0.31954346	     -0.00000000	      2.40577885	     -0.00000000	      0.00000000	      0.00000000	      0.00000000	      0.00000000	      0.00000000	      0.00000000	      0.00000000	      0.00000000	      0.00000000
      0.87300000	    -30.92547134	    594.20478344	    -14.58921377	     -0.12430399	     -0.00200000	      0.31962093	      0.00000000	      2.40691546	      0.00000000	      0.00000000	      0.00000000	      0.00000000	      0.00000000	      0.00000000	      0.00000000	      0.00000000	      0.00000000	      0.00000000
      0.87400000	    -30.71351349	    594.22242641	    -14.56252858	     -0.12385886	     -0.00200000	      0.31969821	      0.00000000	      2.40775173	      0.00000000	      0.00000000	      0.00000000	      0.00000000	      0.00000000	      0.00000000	      0.00000000	      0.00000000	      0.00000000	      0.00000000
      0.87500000	    -30.50021827	    594.26385164	    -14.53883629	     -0.12341747	     -0.00200000	      0.31977527	      0.00000000	      2.40819972	      0.00000000	      0.00000000	      0.00000000	      0.00000000	      0.00000000	      0.00000000	      0.00000000	      0.00000000	      0.00000000	      0.00000000
      0.87600000	    -30.28562479	    594.32369471	    -14.51756917	     -0.12297917	     -0.00200000	      0.31985213	      0.00000000	      2.40832492	     -0.00000000	      0.00000000	      0.00000000	      0.00000000	      0.00000000	      0.00000000	      0.00000000	      0.00000000	      0.00000000	      0.00000000
      0.87700000	    -30.06913234	    594.40574050	    -14.49936591	     -0.12254483	     -0.00200000	      0.31992874	     -0.00000000	      2.40803656	      0.00000000	      0.00000000	      0.00000000	      0.00000000	      0.00000000	      0.00000000	      0.00000000	      0.00000000	      0.00000000	      0.00000000
      0.87800000	    -29.85090390	    594.50495243	    -14.48363140	     -0.12211374	     -0.00200000	      0.32000512	      0.00000000	      2.40741245	      0.00000000	      0.00000000	      0.00000000	      0.00000000	      0.00000000	      0.00000000	      0.00000000	      0.00000000	      0.00000000	      0.00000000
      0.87900000	    -29.63023633	    594.62499619	    -14.47099429	     -0.12168685	     -0.00200000	      0.32008121	     -0.00000000	      2.40636664	     -0.00000000	      0.00000000	      0.00000000	      0.00000000	      0.00000000	      0.00000000	      0.00000000	      0.00000000	      0.00000000	      0.00000000
      0.88000000	    -29.40740809	    594.76107359	    -14.46083151	     -0.12126336	     -0.00200000	      0.32015705	      0.00000000	      2.40498515	      0.00000000	      0.00000000	      0.00000000	      0.00000000	      0.00000000	      0.00000000	      0.00000000	      0.00000000	      0.00000000	      0.00000000
      0.88100000	    -29.18160893	    594.91661191	    -14.45373818	     -0.12084427	     -0.00200000	      0.32023255	      0.00000000	      2.40319095	      0.00000000	      0.00000000	      0.00000000	      0.00000000	      0.00000000	      0.00000000	      0.00000000	      0.00000000	      0.00000000	      0.00000000
      0.88200000	    -28.95322442	    595.08717060	    -14.44906555	     -0.12042876	     -0.00200000	      0.32030777	      0.00000000	      2.40107538	      0.00000000	      0.00000000	      0.00000000	      0.00000000	      0.00000000	      0.00000000	      0.00000000	      0.00000000	      0.00000000	      0.00000000
      0.88300000	    -28.72135770	    595.27575970	    -14.44737017	     -0.12001781	     -0.00200000	      0.32038263	      0.00000000	      2.39857011	      0.00000000	      0.00000000	      0.00000000	      0.00000000	      0.00000000	      0.00000000	      0.00000000	      0.00000000	      0.00000000	      0.00000000
      0.88400000	    -28.48650888	    595.47835588	    -14.44801614	     -0.11961061	     -0.00200000	      0.32045719	      0.00000000	      2.39576321	      0.00000000	      0.00000000	      0.00000000	      0.00000000	      0.00000000	      0.00000000	      0.00000000	      0.00000000	      0.00000000	      0.00000000
      0.88500000	    -28.24770845	    595.69767118	    -14.45153765	     -0.11920816	     -0.00200000	      0.32053136	      0.00000000	      2.39259153	      0.00000000	      0.00000000	      0.00000000	      0.00000000	      0.00000000	      0.00000000	      0.00000000	      0.00000000	      0.00000000	      0.00000000
      0.88600000	    -28.00557576	    595.92992067	    -14.45731558	     -0.11880957	     -0.00200000	      0.32060516	      0.00000000	      2.38913561	     -0.00000000	      0.00000000	      0.00000000	      0.00000000	      0.00000000	      0.00000000	      0.00000000	      0.00000000	      0.00000000	      0.00000000
      0.88700000	    -27.75907796	    596.17763758	    -14.46584444	     -0.11841591	     -0.00200000	      0.32067849	      0.00000000	      2.38533593	      0.00000000	      0.00000000	      0.00000000	      0.00000000	      0.00000000	      0.00000000	      0.00000000	      0.00000000	      0.00000000	      0.00000000
      0.88800000	    -27.50893682	    596.43733501	    -14.47650790	     -0.11802625	     -0.00200000	      0.32075138	      0.00000000	      2.38127161	      0.00000000	      0.00000000	      0.00000000	      0.00000000	      0.00000000	      0.00000000	      0.00000000	      0.00000000	      0.00000000	      0.00000000
      0.88900000	    -27.25408133	    596.71130776	    -14.48974684	     -0.11764167	     -0.00200000	      0.32082366	      0.00000000	      2.37689357	      0.00000000	      0.00000000	      0.00000000	      0.00000000	      0.00000000	      0.00000000	      0.00000000	      0.00000000	      0.00000000	      0.00000000
      0.89000000	    -26.99534222	    596.99636698	    -14.50496502	     -0.11726121	     -0.00200000	      0.32089542	      0.00000000	      2.37228020	      0.00000000	      0.00000000	      0.00000000	      0.00000000	      0.00000000	      0.00000000	      0.00000000	      0.00000000	      0.00000000	      0.00000000
      0.89100000	    -26.73162799	    597.29474783	    -14.52254578	     -0.11688600	     -0.00200000	      0.32096644	     -0.00000000	      2.36739476	     -0.00000000	      0.00000000	      0.00000000	      0.00000000	      0.00000000	      0.00000000	      0.00000000	      0.00000000	      0.00000000	      0.00000000
      0.89200000	    -26.46384947	    597.60344028	    -14.54191916	     -0.11651505	     -0.00200000	      0.32103682	      0.00000000	      2.36231171	      0.00000000	      0.00000000	      0.00000000	      0.00000000	      0.00000000	      0.00000000	      0.00000000	      0.00000000	      0.00000000	      0.00000000
      0.89300000	    -26.19090769	    597.92453051	    -14.56340700	     -0.11614948	     -0.00200000	      0.32110632	      0.00000000	      2.35700464	      0.00000000	      0.00000000	      0.00000000	      0.00000000	      0.00000000	      0.00000000	      0.00000000	      0.00000000	      0.00000000	      0.00000000
      0.89400000	    -25.91378614	    598.25521708	    -14.58648406	     -0.11578828	     -0.00200000	      0.32117503	      0.00000000	      2.35153731	      0.00000000	      0.00000000	      0.00000000	      0.00000000	      0.00000000	      0.00000000	      0.00000000	      0.00000000	      0.00000000	      0.00000000
      0.89500000	    -25.63140262	    598.59749675	    -14.61141575	     -0.11543261	     -0.00200000	      0.32124270	      0.00000000	      2.34589412	      0.00000000	      0.00000000	      0.00000000	      0.00000000	      0.00000000	      0.00000000	      0.00000000	      0.00000000	      0.00000000	      0.00000000
      0.89600000	    -25.34479462	    598.94877672	    -14.63771984	     -0.11508144	     -0.00200000	      0.32130945	     -0.00000000	      2.34013174	     -0.00000000	      0.00000000	      0.00000000	      0.00000000	      0.00000000	      0.00000000	      0.00000000	      0.00000000	      0.00000000	      0.00000000
